<svg width="575" height="586" viewBox="0 0 575 586" fill="none" xmlns="http://www.w3.org/2000/svg">
<path d="M9.21667 2.40313C0.416667 6.6698 -0.25 10.0031 0.15 44.2698C0.55 72.5365 0.683333 74.6698 3.35 78.2698C4.81667 80.2698 7.61667 82.8031 9.35 83.6031C11.8833 84.9365 40.15 85.3365 133.617 85.3365C267.883 85.3365 261.217 84.9365 266.683 93.8698C268.95 97.6031 269.217 101.203 269.217 134.67C269.217 168.136 268.95 171.736 266.683 175.47C261.35 184.136 262.817 184.003 179.617 184.003C122.283 184.003 103.75 184.403 101.217 185.736C99.4833 186.67 96.55 189.47 94.95 191.87C92.0167 196.27 91.8833 197.203 91.8833 229.87C91.8833 278.136 94.0167 276.003 44.0167 276.003H10.55L5.48333 280.536L0.55 285.07L0.15 316.27C-0.383333 362.936 -1.98333 361.336 46.55 361.336C76.55 361.336 79.6167 361.603 83.4833 364.003C90.95 368.536 91.2167 369.603 91.8833 407.603C92.55 440.403 92.6833 442.67 95.35 446.27C96.8167 448.27 100.15 450.67 102.683 451.603C106.017 452.803 137.083 453.203 223.617 453.203C349.883 453.336 345.617 453.603 351.617 446.003C354.417 442.403 354.55 441.07 354.55 411.07C354.55 385.736 354.15 379.07 352.55 376.003C348.15 367.603 354.55 368.003 221.617 368.003C108.95 368.003 100.283 367.87 96.0167 365.603C93.4833 364.403 90.15 361.603 88.6833 359.603C86.0167 356.003 85.8833 353.736 85.4833 321.603C85.2167 300.403 85.6167 285.47 86.4167 282.67C87.2167 280.003 89.6167 276.136 91.8833 274.003L96.0167 270.003L174.283 269.336C246.15 268.67 252.817 268.536 256.017 266.27C262.15 262.136 262.55 259.336 262.55 224.936C262.55 188.803 263.083 186.136 271.75 180.403C276.15 177.47 277.217 177.336 309.483 177.336C357.083 177.336 354.55 179.87 354.55 134.003V102.67L350.017 97.6031L345.483 92.6698L309.483 92.0031L273.483 91.3365L269.75 88.0031C263.083 81.7365 262.55 78.8031 262.55 43.8698C262.55 16.0031 262.283 11.2031 260.283 7.8698C255.35 -0.39687 260.817 0.00312984 131.617 0.00312984C22.15 0.00312984 13.6167 0.136463 9.21667 2.40313Z" fill="white"/>
<path d="M405.75 2.13656C397.75 6.00323 397.217 8.40323 397.217 42.6699C397.217 87.7366 394.683 85.3366 442.283 85.3366C474.55 85.3366 475.617 85.4699 480.017 88.4032C489.883 94.9366 489.217 80.8032 489.217 271.737V442.67L493.75 447.737L498.283 452.67L529.483 453.07C564.683 453.47 567.883 452.803 572.15 444.003C574.417 439.603 574.55 428.67 574.55 272.937C574.55 89.7366 575.083 100.003 566.283 94.6699C562.15 92.1366 559.617 92.0032 528.817 92.0032C492.15 92.0032 490.017 91.6032 485.217 83.6032C482.817 79.7366 482.55 76.6699 482.55 46.9366C482.55 10.8032 481.883 7.33656 474.283 2.66989C470.15 0.269894 467.617 0.00322751 439.883 0.00322751C415.883 0.00322751 409.083 0.403228 405.75 2.13656ZM512.15 134.27L512.55 155.337H518.55H524.55L524.95 134.27L525.35 113.337H530.55H535.883V134.67V156.003H541.883H547.883V134.67V113.337H553.217H558.683L558.283 134.27L557.883 155.337L552.95 155.737C548.283 156.137 548.017 156.403 547.617 161.07C547.217 165.87 547.083 166.003 541.617 166.403L535.883 166.803V161.337V155.87L530.283 156.27C524.683 156.67 524.55 156.803 524.15 161.603C523.75 166.537 523.617 166.67 518.55 166.67C513.483 166.67 513.35 166.537 512.95 161.603C512.55 156.937 512.283 156.67 507.217 156.003L501.883 155.337L501.483 134.27L501.083 113.337H506.417H511.75L512.15 134.27ZM523.617 190.937L524.017 201.337H529.883H535.75L536.15 190.937L536.55 180.67H541.217H545.883L546.283 190.937L546.683 201.203L540.95 201.603C535.217 202.003 535.217 202.003 535.217 207.337C535.217 212.67 535.217 212.67 540.95 213.07L546.55 213.47V224.137V234.67H541.217H535.883V224.003V213.337H529.883H523.883V224.003V234.67H518.55H513.217V208.27C513.217 193.737 513.617 181.337 514.15 180.803C514.683 180.27 516.95 180.003 519.217 180.27L523.217 180.67L523.617 190.937ZM535.617 254.27C536.017 260.003 536.017 260.003 541.35 260.003H546.55V276.003V292.003H541.35C536.017 292.003 536.017 292.003 535.617 297.603C535.217 303.203 535.083 303.337 530.283 303.737C525.483 304.137 524.417 303.337 525.083 299.47C525.217 298.67 525.083 296.803 524.55 295.07C524.017 292.537 522.95 292.003 518.55 292.003H513.217V276.137V260.137L518.95 259.737C524.55 259.337 524.55 259.337 524.95 253.603C525.35 247.87 525.35 247.87 530.283 248.27C535.083 248.67 535.217 248.803 535.617 254.27ZM535.617 322.937C536.017 327.603 536.283 327.87 540.95 328.27L545.883 328.67L546.283 350.27L546.55 372.003H541.217H535.883V349.87V327.87L530.283 328.27L524.55 328.67L524.15 350.27L523.883 372.003H518.55H513.217L513.483 350.27L513.883 328.67L519.217 328.003C524.017 327.337 524.55 326.937 524.817 323.337C524.817 321.07 525.083 318.803 525.083 318.27C525.217 317.603 527.483 317.337 530.283 317.603C534.95 318.003 535.217 318.27 535.617 322.937ZM535.617 391.603C536.017 397.337 536.017 397.337 541.35 397.337H546.55L546.283 418.937L545.883 440.67H541.217H536.55L536.15 429.87L535.75 419.203L531.883 419.737C529.617 420.003 526.95 419.603 525.883 418.67C524.283 417.337 523.883 418.803 523.617 428.937L523.217 440.67H518.55H513.883L513.483 419.07L513.217 397.47L518.817 397.07C524.55 396.67 524.55 396.67 524.95 390.937C525.35 385.203 525.35 385.203 530.283 385.603C535.083 386.003 535.217 386.137 535.617 391.603Z" fill="white"/>
<path d="M524.55 260.403C524.15 261.336 524.017 269.07 524.15 277.47L524.55 292.67H529.883H535.217V276.003V259.336L530.15 258.936C526.817 258.67 524.95 259.07 524.55 260.403Z" fill="white"/>
<path d="M524.817 396.803C524.283 397.336 523.883 400.136 523.883 402.936V408.003H530.017H536.017L535.617 402.27C535.217 396.936 535.083 396.67 530.55 396.27C527.883 396.003 525.35 396.27 524.817 396.803Z" fill="white"/>
<path d="M287.883 501.737C275.75 505.203 264.817 514.67 259.483 526.537C255.483 535.203 255.617 551.603 259.483 560.27C263.483 569.07 272.15 578.003 281.083 582.27C287.483 585.47 290.15 586.003 299.883 586.003C310.417 586.003 311.883 585.603 319.883 581.203C334.417 573.203 342.55 559.603 342.55 543.07C342.55 539.203 342.15 536.003 341.617 536.003C340.95 536.137 338.95 537.47 337.083 539.07C334.55 541.203 333.083 544.27 331.883 549.737C328.683 565.337 315.483 576.003 299.35 576.003C276.683 575.87 261.75 555.603 267.883 533.203C269.75 526.803 279.083 516.27 285.883 513.203C293.083 509.87 305.483 510.003 312.95 513.337L318.683 516.003L322.55 513.07C327.35 509.603 326.417 508.137 316.817 504.003C308.417 500.403 296.017 499.47 287.883 501.737Z" fill="white"/>
<path d="M390.95 517.47C380.95 519.337 375.75 523.07 371.35 531.603C367.217 539.737 369.35 554.937 375.617 561.737C383.083 570.137 399.883 572.537 410.283 566.67C413.35 564.937 415.883 563.07 415.883 562.403C415.883 561.87 414.417 560.403 412.55 559.203C409.75 557.337 408.417 557.203 405.75 558.537C397.35 562.27 385.617 559.07 381.883 552.003C377.617 543.737 380.417 532.537 387.883 528.67C392.417 526.403 400.283 526.003 404.017 528.003C406.017 529.07 407.617 528.937 410.55 527.07C415.35 524.27 415.483 523.337 411.483 520.67C407.083 517.87 397.483 516.403 390.95 517.47Z" fill="white"/>
<path d="M316.55 529.47C307.883 536.003 300.017 541.337 299.217 541.337C298.55 541.337 294.55 539.203 290.55 536.537L283.217 531.87L282.817 537.603C282.283 543.87 283.75 545.603 294.417 551.603L299.617 554.537L318.683 540.537C329.217 532.803 338.017 526.27 338.283 526.003C339.083 525.337 334.55 517.337 333.483 517.47C332.95 517.47 325.35 522.803 316.55 529.47Z" fill="white"/>
<path d="M426.55 543.336V569.336H441.217C462.95 569.336 469.883 565.47 469.883 553.336C469.883 542.136 462.55 537.336 445.617 537.336H437.217V532.003V526.67H447.617C457.483 526.67 458.55 526.403 464.683 522.003L471.217 517.336H448.817H426.55V543.336ZM457.217 549.336C460.55 552.67 460.55 553.603 457.483 557.336C455.35 559.87 453.617 560.403 446.417 560.536L437.883 560.67L437.483 553.603L437.083 546.67H445.75C452.817 546.67 455.083 547.203 457.217 549.336Z" fill="white"/>
<path d="M481.083 517.87C480.817 518.136 480.683 529.87 480.95 543.87L481.35 569.336H500.55H519.883V565.336V561.47L506.283 561.07L492.55 560.67L492.15 554.27L491.75 548.003H503.75H515.883V543.336V538.67H503.883H491.883V532.67V526.67H499.617C506.283 526.67 508.417 526.003 512.95 522.67C516.017 520.403 518.55 518.403 518.55 518.003C518.55 517.203 481.883 517.07 481.083 517.87Z" fill="white"/>
<path d="M530.55 543.336V569.336H535.883H541.217V562.136V555.07L551.883 554.403C559.883 553.87 563.617 553.07 566.283 551.07C571.617 547.203 574.817 540.27 574.017 534.27C572.55 522.003 564.55 517.47 544.283 517.336H530.55V543.336ZM559.883 529.336C563.217 532.67 563.35 540.136 560.283 543.07C558.817 544.27 554.817 545.203 549.883 545.47L541.883 545.87L541.483 536.27L541.083 526.67H549.217C555.483 526.67 557.75 527.203 559.883 529.336Z" fill="white"/>
</svg>
